<svg width="1200" height="220" viewBox="0 0 1200 220" fill="none" xmlns="http://www.w3.org/2000/svg" role="img">
  <rect width="1200" height="220" rx="22" fill="#090D12"/>
  <rect x="0.75" y="0.75" width="1198.5" height="218.5" rx="21.25" stroke="#303945" stroke-width="1.5"/>

  <g opacity="0.34" stroke="#1D2732">
    <path d="M56 56H1144"/>
    <path d="M56 112H1144"/>
    <path d="M56 168H1144"/>
    <path d="M184 28V194"/>
    <path d="M384 28V194"/>
    <path d="M584 28V194"/>
    <path d="M784 28V194"/>
    <path d="M984 28V194"/>
  </g>

  <g font-family="Geist Mono, SFMono-Regular, Consolas, monospace">
    <text x="56" y="43" fill="#91A0AE" font-size="13" letter-spacing="3.2">REPRESENTATIVE SYSTEM TRACE</text>
    <text x="56" y="78" fill="#E5E7EB" font-size="17">messy request enters, reliable artifact leaves</text>

    <rect x="56" y="105" width="152" height="42" rx="11" fill="#0D151B" stroke="#334155"/>
    <text x="80" y="132" fill="#D6DEE8" font-size="16">input</text>
    <path d="M218 126H250" stroke="#6B7787" stroke-width="1.5"/><path d="M244 120L251 126L244 132" stroke="#6B7787" stroke-width="1.5"/>

    <rect x="260" y="105" width="152" height="42" rx="11" fill="#0D151B" stroke="#334155"/>
    <text x="284" y="132" fill="#D6DEE8" font-size="16">plan</text>
    <path d="M422 126H454" stroke="#6B7787" stroke-width="1.5"/><path d="M448 120L455 126L448 132" stroke="#6B7787" stroke-width="1.5"/>

    <rect x="464" y="105" width="152" height="42" rx="11" fill="#0A3028" stroke="#1F8A70"/>
    <text x="488" y="132" fill="#A7F3D0" font-size="16">DAG</text>
    <path d="M626 126H658" stroke="#6B7787" stroke-width="1.5"/><path d="M652 120L659 126L652 132" stroke="#6B7787" stroke-width="1.5"/>

    <rect x="668" y="105" width="152" height="42" rx="11" fill="#0D151B" stroke="#334155"/>
    <text x="692" y="132" fill="#D6DEE8" font-size="16">sandbox</text>
    <path d="M830 126H862" stroke="#6B7787" stroke-width="1.5"/><path d="M856 120L863 126L856 132" stroke="#6B7787" stroke-width="1.5"/>

    <rect x="872" y="105" width="122" height="42" rx="11" fill="#0D151B" stroke="#334155"/>
    <text x="896" y="132" fill="#D6DEE8" font-size="16">judge</text>
    <path d="M1004 126H1036" stroke="#6B7787" stroke-width="1.5"/><path d="M1030 120L1037 126L1030 132" stroke="#6B7787" stroke-width="1.5"/>

    <rect x="1046" y="105" width="98" height="42" rx="11" fill="#0D151B" stroke="#334155"/>
    <text x="1068" y="132" fill="#D6DEE8" font-size="16">deck</text>

    <text x="56" y="180" fill="#91A0AE" font-size="13">guards:</text>
    <text x="126" y="180" fill="#A7F3D0" font-size="13">source cards</text>
    <text x="244" y="180" fill="#A7F3D0" font-size="13">cost controls</text>
    <text x="374" y="180" fill="#A7F3D0" font-size="13">retry boundaries</text>
    <text x="536" y="180" fill="#A7F3D0" font-size="13">artifact evals</text>
    <text x="676" y="180" fill="#A7F3D0" font-size="13">sanitized public proof</text>
  </g>

  <g font-family="Geist Mono, SFMono-Regular, Consolas, monospace" font-size="12">
    <rect x="910" y="33" width="234" height="42" rx="10" fill="#0A1515" stroke="#25483F"/>
    <circle cx="934" cy="54" r="5" fill="#34D399"/>
    <text x="951" y="58" fill="#B7C3CF">production constraints first</text>
  </g>
</svg>
